<?xml version="1.0" encoding="UTF-8" standalone="no"?>
<!DOCTYPE svg PUBLIC "-//W3C//DTD SVG 1.1//EN" "http://www.w3.org/Graphics/SVG/1.1/DTD/svg11.dtd">
<svg xmlns="http://www.w3.org/2000/svg" version="1.1" viewBox="0.00 0.00 720.00 714.00">
<path fill="#ca2227" d="
  M 400.49 0.00
  Q 409.94 0.55 413.56 1.17
  Q 439.35 5.58 452.44 9.55
  Q 479.01 17.62 486.57 20.68
  Q 501.26 26.61 503.68 27.84
  C 509.30 30.67 513.94 32.37 518.83 35.09
  C 523.14 37.48 530.60 41.07 536.22 44.33
  Q 554.34 54.83 569.23 66.10
  Q 581.84 75.64 598.57 90.50
  Q 603.95 95.27 609.87 101.31
  C 615.33 106.89 620.14 111.33 625.39 117.57
  C 639.53 134.37 652.59 151.21 663.17 169.40
  Q 682.64 202.89 693.79 236.73
  Q 698.19 250.06 703.57 270.90
  Q 706.53 282.38 708.17 294.01
  Q 711.09 314.76 711.96 331.78
  C 712.05 333.53 712.72 335.30 712.72 337.50
  Q 712.80 360.61 712.63 369.36
  C 712.61 370.49 711.90 371.61 711.85 372.85
  Q 711.62 379.29 711.30 382.28
  C 709.75 396.74 707.88 411.33 704.50 425.71
  Q 693.89 470.70 674.05 510.39
  C 663.90 530.70 649.83 551.52 636.18 569.19
  Q 632.43 574.04 623.85 583.60
  Q 621.25 586.49 620.76 587.02
  Q 612.46 596.05 598.58 609.07
  Q 581.49 625.10 561.23 639.21
  Q 549.42 647.43 530.61 658.23
  Q 521.53 663.44 512.87 667.49
  Q 475.66 684.86 443.19 692.68
  Q 439.20 693.64 413.03 698.60
  C 406.28 699.88 397.97 700.41 392.80 701.12
  C 388.53 701.71 384.21 701.56 379.30 702.13
  Q 376.57 702.45 373.87 702.43
  Q 368.11 702.40 341.75 702.45
  Q 334.10 702.46 318.37 700.83
  Q 308.71 699.83 298.62 697.73
  Q 270.52 691.85 250.65 685.59
  Q 236.75 681.21 215.70 672.23
  Q 186.66 659.83 161.22 642.25
  Q 147.00 632.43 127.87 616.61
  Q 120.16 610.25 113.04 603.23
  Q 75.73 566.50 49.37 520.54
  Q 44.15 511.42 40.06 502.81
  Q 10.96 441.53 6.23 373.17
  C 6.08 371.02 5.34 368.67 5.32 366.25
  Q 5.20 356.36 5.35 333.75
  Q 5.36 332.11 5.94 327.85
  Q 6.28 325.29 6.33 321.86
  Q 6.41 316.19 8.69 300.19
  Q 13.78 264.56 25.69 232.14
  Q 29.05 223.00 30.05 220.44
  Q 37.68 200.91 50.04 178.03
  Q 64.04 152.14 82.64 130.14
  Q 92.71 118.24 100.90 108.98
  Q 102.62 107.04 104.94 104.85
  Q 108.27 101.69 109.10 100.85
  Q 139.98 69.75 180.64 45.24
  Q 182.53 44.10 187.81 41.25
  C 191.02 39.52 194.33 37.38 197.36 35.90
  Q 221.96 23.88 248.19 14.83
  Q 254.01 12.83 259.40 11.48
  C 263.95 10.34 269.10 8.49 274.44 7.24
  C 289.40 3.75 303.44 0.99 318.46 0.00
  L 400.49 0.00
  Z
  M 245.52 315.05
  Q 246.50 306.51 245.98 297.61
  L 246.39 293.69
  Q 247.29 294.08 247.29 292.37
  Q 247.19 265.21 247.06 238.03
  Q 247.05 237.35 246.68 236.89
  C 247.41 234.41 247.25 232.98 247.33 229.53
  Q 247.39 226.85 248.84 225.63
  Q 251.17 223.66 253.00 223.66
  Q 273.00 223.68 277.40 223.71
  C 287.41 223.79 297.66 222.90 307.56 222.16
  Q 312.53 221.78 319.00 221.81
  C 321.69 221.82 324.15 220.83 326.82 220.84
  C 333.79 220.88 338.93 221.05 343.47 220.10
  Q 345.02 219.78 346.60 219.81
  Q 355.43 219.99 360.06 219.43
  C 364.75 218.87 369.58 219.35 373.82 218.16
  C 377.32 217.17 381.05 217.89 384.23 217.27
  C 387.28 216.66 390.13 216.91 393.52 216.28
  Q 395.30 215.95 397.25 215.79
  Q 408.04 214.89 416.80 213.52
  Q 429.25 211.58 436.25 210.70
  Q 460.58 207.64 485.73 203.41
  C 505.70 200.05 523.45 195.07 543.64 189.08
  Q 549.33 187.39 565.15 181.13
  Q 582.36 174.33 595.62 163.34
  Q 597.17 162.06 598.98 160.25
  C 602.11 157.13 604.87 154.70 606.62 151.84
  Q 610.45 145.57 610.25 137.67
  Q 610.69 133.44 609.59 129.18
  Q 609.46 128.68 608.97 128.51
  Q 608.12 128.21 607.50 128.77
  C 605.79 128.79 604.86 128.72 603.29 129.48
  Q 591.65 135.12 580.30 141.32
  C 578.03 142.57 574.77 143.62 572.24 144.98
  Q 559.07 152.05 545.53 158.78
  Q 541.75 160.65 535.67 162.28
  Q 534.27 162.66 532.79 162.36
  C 529.99 161.80 528.09 161.49 525.76 160.43
  Q 517.39 156.65 512.35 154.75
  Q 490.31 146.48 461.87 137.22
  Q 444.37 131.52 419.22 125.97
  C 412.78 124.54 406.58 123.83 399.70 122.39
  C 395.05 121.42 389.73 120.92 384.84 120.29
  C 374.67 118.98 361.15 119.76 353.60 119.60
  Q 346.53 119.45 342.02 120.74
  Q 330.92 123.92 323.14 129.91
  Q 313.98 136.96 301.62 148.87
  Q 289.89 160.16 288.38 161.66
  Q 284.15 165.82 281.86 168.56
  C 278.54 172.51 275.17 175.58 272.26 179.62
  C 270.12 182.57 267.07 185.28 264.27 188.58
  C 260.43 193.09 258.23 194.64 253.32 196.59
  C 251.02 197.50 249.12 195.51 248.01 193.80
  Q 247.26 192.66 247.27 189.98
  Q 247.28 178.40 247.28 166.90
  Q 247.28 161.06 246.42 158.77
  C 244.87 154.64 241.20 150.93 236.54 150.56
  C 229.67 150.00 222.70 151.94 218.82 157.51
  Q 216.97 160.17 216.26 166.64
  Q 214.77 180.30 214.25 191.50
  Q 214.20 192.41 213.28 195.08
  Q 213.12 195.56 212.65 195.76
  Q 210.02 196.86 206.30 196.68
  Q 197.39 196.24 180.23 195.95
  C 169.42 195.77 158.11 194.67 147.40 194.61
  C 145.12 194.60 143.20 193.83 141.14 193.86
  Q 132.97 193.99 122.38 193.16
  Q 116.74 192.72 109.97 193.72
  Q 108.81 193.89 108.64 195.05
  Q 107.99 199.32 107.02 207.33
  Q 106.29 213.40 106.99 217.45
  A 1.79 1.78 89.1 0 0 108.50 218.92
  Q 117.61 220.17 126.95 219.88
  C 128.54 219.83 130.43 220.60 132.06 220.67
  Q 135.73 220.82 145.55 220.90
  C 146.47 220.91 147.51 221.38 148.32 221.43
  Q 161.68 222.15 175.03 223.09
  C 180.49 223.47 186.20 223.42 191.98 223.63
  C 198.03 223.85 205.00 223.26 211.09 223.94
  Q 212.97 224.15 214.76 225.78
  Q 215.12 226.10 215.19 226.58
  Q 215.70 229.94 215.70 231.02
  Q 215.66 244.88 215.73 258.76
  C 215.74 260.15 214.79 260.48 214.77 261.98
  Q 214.54 280.09 214.77 286.73
  Q 214.97 292.41 214.09 300.81
  Q 213.46 306.83 213.65 320.00
  Q 213.66 320.64 213.18 322.15
  Q 212.95 322.90 212.96 324.39
  Q 213.01 335.53 211.30 356.35
  Q 209.42 379.11 203.32 397.28
  C 202.22 400.53 199.84 405.86 197.90 408.66
  Q 193.17 415.49 185.99 418.80
  C 184.16 419.64 181.76 419.84 180.14 420.21
  Q 178.51 420.58 175.62 420.64
  Q 166.80 420.84 155.00 419.57
  C 144.29 418.43 135.06 414.81 124.31 410.69
  Q 115.69 407.40 102.92 399.60
  Q 97.25 396.14 80.80 382.56
  Q 73.02 376.13 68.33 367.31
  C 66.85 364.53 67.27 363.22 67.99 360.60
  Q 68.43 358.96 71.31 357.13
  C 75.90 354.20 81.01 352.19 82.09 348.01
  C 84.33 339.34 76.37 334.09 68.46 334.40
  Q 60.26 334.73 53.22 337.96
  Q 44.04 342.17 37.47 347.44
  Q 34.60 349.73 32.97 352.70
  Q 31.86 354.71 31.80 358.86
  Q 31.73 363.70 31.90 365.19
  Q 32.85 373.08 38.97 380.96
  Q 45.90 389.87 54.29 397.43
  Q 65.89 407.90 78.27 415.58
  Q 86.45 420.66 88.80 422.11
  C 96.00 426.55 104.51 430.40 110.92 433.74
  Q 116.35 436.57 122.40 438.81
  C 135.80 443.79 148.03 447.64 161.18 447.99
  C 166.09 448.11 170.89 449.75 175.82 448.41
  Q 178.76 447.62 181.35 447.68
  Q 194.03 448.02 207.44 439.94
  C 218.40 433.34 224.90 423.89 229.74 412.26
  Q 235.63 398.07 237.76 385.82
  Q 240.55 369.70 243.08 352.92
  C 243.70 348.85 243.33 344.47 243.84 341.31
  C 244.64 336.39 244.36 331.64 245.02 326.66
  Q 245.32 324.35 245.36 320.85
  Q 245.39 317.89 245.52 315.05
  Z
  M 642.32 193.57
  Q 643.74 188.26 642.19 183.22
  L 641.14 181.44
  Q 640.89 181.04 640.42 181.02
  C 638.19 180.96 636.84 180.90 634.86 180.51
  Q 629.61 179.47 627.00 179.92
  Q 623.70 180.49 620.38 180.94
  C 615.44 181.62 614.50 185.03 613.08 189.73
  C 611.54 194.86 610.01 201.81 610.99 206.90
  Q 611.08 207.39 611.49 207.69
  Q 613.71 209.35 614.82 209.46
  Q 621.67 210.16 630.00 209.73
  C 635.79 209.43 638.77 208.35 640.39 202.68
  Q 642.14 196.57 642.32 193.57
  Z
  M 629.46 236.89
  Q 630.17 232.09 627.23 229.43
  C 622.85 225.48 610.36 227.34 607.41 232.71
  Q 605.18 236.77 603.62 243.89
  Q 600.64 257.48 594.82 286.82
  Q 591.75 302.25 585.31 330.00
  C 582.92 340.30 581.03 347.81 580.62 356.65
  Q 580.48 359.49 581.72 360.62
  Q 583.72 362.45 585.67 362.87
  Q 588.81 363.56 594.10 362.42
  Q 594.21 362.40 598.32 361.71
  C 602.61 360.99 604.80 354.59 605.63 350.93
  Q 609.89 332.04 615.83 302.80
  Q 620.09 281.81 627.75 247.35
  C 628.46 244.13 628.95 240.32 629.46 236.89
  Z
  M 362.49 249.68
  Q 361.20 249.31 355.30 246.26
  Q 351.10 244.08 348.07 243.16
  C 343.41 241.74 340.03 240.71 335.54 240.71
  C 328.12 240.70 322.36 240.25 315.95 241.74
  Q 308.37 243.50 306.16 244.40
  Q 301.46 246.31 294.12 251.59
  C 284.31 258.65 277.17 270.41 273.11 281.37
  Q 266.21 300.00 265.68 320.93
  C 265.43 330.76 267.52 339.80 272.70 347.44
  C 274.71 350.39 278.27 355.07 281.61 357.55
  Q 288.36 362.59 296.32 363.85
  C 298.79 364.23 301.57 364.84 304.63 364.81
  Q 311.64 364.75 313.42 364.79
  Q 318.57 364.90 322.07 363.93
  C 327.66 362.38 332.09 360.29 337.30 357.77
  Q 338.13 357.37 340.36 357.90
  Q 341.14 358.09 341.63 358.72
  C 343.16 360.68 344.61 362.69 347.85 363.34
  C 353.56 364.49 359.46 363.35 362.92 358.15
  Q 363.99 356.53 365.02 351.32
  Q 366.29 344.91 366.32 344.77
  Q 377.14 294.53 378.91 285.64
  Q 383.20 264.13 384.71 257.36
  C 385.18 255.21 385.12 252.78 385.73 250.88
  Q 386.68 247.97 385.95 246.12
  C 384.72 242.97 382.59 242.66 379.36 242.58
  C 375.79 242.49 371.16 241.62 368.24 244.74
  Q 367.05 246.00 363.60 249.40
  A 1.15 1.14 30.5 0 1 362.49 249.68
  Z
  M 576.25 250.46
  Q 577.08 248.25 576.25 245.95
  Q 575.63 243.26 572.22 243.04
  C 568.92 242.82 561.65 241.95 558.62 244.61
  C 554.63 248.11 551.90 251.85 548.98 257.11
  Q 535.76 280.95 521.99 305.15
  C 519.68 309.21 516.82 315.68 513.69 320.25
  A 0.97 0.96 46.6 0 1 512.07 320.20
  C 509.79 316.43 509.43 311.02 508.97 306.70
  Q 508.10 298.45 507.87 296.80
  Q 506.26 285.40 503.36 265.06
  C 502.55 259.37 501.87 252.88 500.08 247.15
  Q 498.75 242.90 494.33 242.77
  C 490.29 242.65 485.32 242.86 483.03 245.78
  Q 478.93 251.02 474.91 258.38
  Q 463.85 278.68 461.69 282.42
  C 457.58 289.50 451.38 300.06 445.49 311.87
  Q 442.97 316.92 438.61 320.98
  A 0.59 0.58 -35.0 0 1 437.69 320.82
  Q 436.26 318.02 436.15 315.06
  C 436.07 312.79 435.62 311.07 435.39 309.00
  Q 432.40 281.12 428.11 249.13
  C 427.60 245.32 426.39 243.40 422.61 242.94
  Q 420.87 242.72 415.84 242.74
  Q 411.56 242.76 409.50 244.39
  Q 406.25 246.97 406.84 251.75
  Q 412.10 294.09 418.81 342.73
  Q 419.30 346.22 420.40 353.07
  Q 421.24 358.28 422.38 359.63
  C 427.09 365.23 432.51 364.05 438.44 361.26
  Q 440.81 360.14 443.09 356.71
  Q 447.56 350.00 450.49 344.40
  Q 454.83 336.10 457.39 331.84
  Q 469.96 310.88 480.24 291.99
  Q 480.73 291.08 482.75 288.61
  Q 483.36 287.88 483.95 288.62
  Q 485.60 290.67 486.06 293.63
  C 487.96 305.89 490.73 324.76 493.04 343.48
  Q 493.56 347.72 494.88 355.05
  C 495.92 360.83 498.54 362.89 504.53 363.66
  Q 506.03 363.85 508.22 363.34
  C 510.60 362.78 514.46 362.49 516.30 360.29
  Q 518.73 357.39 520.82 353.33
  Q 523.88 347.40 528.97 338.71
  C 531.18 334.94 533.18 330.40 535.08 327.09
  Q 541.50 315.97 546.20 306.90
  C 548.79 301.92 551.75 297.50 554.49 292.24
  C 558.06 285.40 561.59 279.59 565.21 272.72
  C 568.42 266.62 572.78 259.63 575.67 252.44
  Q 576.07 251.45 576.25 250.46
  Z
  M 418.43 411.16
  Q 425.43 409.49 426.99 402.70
  Q 427.77 399.31 426.37 396.45
  Q 424.80 393.24 421.59 391.76
  C 416.12 388.59 408.33 388.01 402.16 387.87
  C 398.11 387.78 392.69 388.90 388.52 388.71
  C 385.91 388.60 383.55 389.56 380.54 389.89
  C 378.85 390.07 377.84 390.93 377.84 392.56
  A 0.70 0.70 0.0 0 0 378.43 393.24
  C 385.31 394.33 384.48 398.57 384.57 404.87
  Q 384.77 417.45 384.57 431.88
  Q 384.55 433.45 386.87 434.82
  A 0.88 0.87 43.4 0 0 387.81 434.80
  Q 389.79 433.48 392.63 433.99
  A 1.45 1.42 35.3 0 0 393.57 433.84
  C 396.57 432.23 396.45 423.96 396.37 420.25
  Q 396.33 418.05 397.57 416.31
  Q 397.87 415.88 398.39 415.85
  Q 408.83 415.27 418.43 411.16
  Z
  M 597.33 400.60
  C 596.06 398.41 598.66 395.93 600.30 394.80
  Q 601.45 394.00 603.31 393.49
  Q 613.15 390.79 619.31 400.29
  Q 620.33 401.85 621.85 401.37
  A 1.49 1.46 -86.5 0 0 622.73 400.58
  C 624.15 397.53 625.76 390.34 621.65 389.14
  C 613.99 386.90 605.88 387.85 598.40 389.88
  Q 589.76 392.23 587.35 399.63
  Q 586.56 402.05 587.27 403.82
  C 588.91 407.92 590.25 408.97 594.76 410.82
  Q 603.64 414.47 607.18 416.09
  C 610.82 417.76 612.96 418.63 614.56 421.79
  Q 616.43 425.45 612.89 427.34
  C 608.81 429.52 605.13 429.06 599.49 428.85
  C 594.42 428.66 592.49 425.46 590.10 421.56
  A 1.30 1.29 -38.1 0 0 588.09 421.32
  C 585.31 424.05 583.90 429.35 587.08 432.25
  C 590.99 435.81 599.39 434.56 603.72 434.74
  Q 608.52 434.94 611.26 434.11
  C 616.93 432.40 626.23 428.59 626.35 421.47
  Q 626.46 414.54 619.74 411.79
  Q 618.67 411.35 601.96 404.53
  Q 598.86 403.26 597.33 400.60
  Z
  M 320.50 391.70
  Q 319.67 391.37 319.16 392.46
  A 0.57 0.57 0.0 0 0 319.42 393.21
  Q 319.80 393.41 320.21 393.06
  C 322.54 394.29 325.32 394.69 327.26 396.20
  Q 334.38 401.76 338.59 410.38
  A 1.21 1.20 -37.2 0 1 338.40 411.72
  C 331.91 418.89 323.49 424.49 318.15 431.14
  Q 317.38 432.10 317.88 433.12
  A 1.40 1.37 78.2 0 0 319.03 433.89
  C 322.90 434.14 328.87 433.63 331.27 430.77
  Q 334.16 427.33 337.10 424.43
  C 338.85 422.70 340.30 420.03 342.08 418.39
  Q 343.97 416.66 345.43 418.76
  Q 349.28 424.30 352.96 429.31
  Q 358.24 436.48 367.08 434.57
  Q 367.92 434.39 372.32 432.41
  Q 372.78 432.19 372.93 431.70
  Q 373.24 430.66 373.03 429.54
  Q 372.94 429.03 372.44 428.89
  C 369.65 428.06 367.34 427.48 365.10 425.74
  Q 357.30 419.68 353.44 411.33
  A 1.68 1.65 45.4 0 1 353.44 409.90
  Q 354.63 407.33 356.97 405.47
  Q 357.80 404.80 368.89 396.11
  Q 370.11 395.15 371.35 393.86
  C 372.76 392.40 372.66 390.34 370.63 389.45
  Q 365.22 387.06 361.12 391.14
  Q 351.48 400.72 348.36 403.72
  A 0.87 0.87 0.0 0 1 347.06 403.61
  C 342.81 397.96 336.28 387.74 329.53 387.98
  Q 324.62 388.15 320.50 391.70
  Z
  M 429.96 391.82
  Q 430.35 391.20 429.47 391.53
  A 0.63 0.62 65.8 0 0 429.14 392.40
  Q 430.46 395.00 433.15 393.69
  Q 437.19 394.64 438.20 398.74
  C 439.56 404.26 438.11 409.79 437.77 414.20
  Q 437.43 418.48 436.94 422.34
  Q 436.19 428.30 436.44 430.49
  Q 436.80 433.49 439.58 433.65
  Q 443.63 433.88 444.18 433.91
  A 2.78 2.77 13.6 0 0 446.84 432.29
  C 448.55 428.52 448.21 424.13 448.51 421.12
  Q 448.56 420.57 448.95 420.18
  Q 450.33 418.80 450.92 417.41
  Q 451.41 416.27 452.32 417.12
  Q 459.81 424.13 466.19 429.67
  Q 467.38 430.70 468.81 431.65
  Q 471.14 433.18 472.01 433.33
  Q 477.29 434.24 477.29 434.25
  Q 479.04 434.89 481.69 434.04
  C 482.50 433.79 487.30 433.81 487.95 431.70
  Q 489.32 431.77 489.70 431.02
  A 0.72 0.72 0.0 0 0 489.18 429.99
  Q 487.69 429.76 486.80 430.11
  C 481.12 428.02 475.73 425.87 471.24 421.74
  Q 467.69 418.49 464.63 414.83
  A 1.44 1.43 -35.8 0 1 464.98 412.69
  L 474.42 406.87
  Q 479.32 404.43 478.61 399.07
  Q 478.64 397.83 478.42 396.60
  C 478.00 394.23 474.90 392.20 472.97 391.40
  Q 463.76 387.55 452.75 388.07
  Q 443.63 388.50 432.31 390.32
  Q 431.25 390.49 429.96 391.82
  Z
  M 265.18 392.30
  Q 264.22 391.45 263.64 392.02
  A 0.87 0.86 -51.1 0 0 263.78 393.37
  Q 265.08 394.19 265.71 393.26
  Q 266.64 393.88 269.91 395.10
  Q 272.22 395.96 272.41 399.14
  Q 273.05 409.89 272.62 420.72
  C 272.58 421.82 271.84 423.04 271.86 423.87
  Q 271.96 428.01 271.74 431.83
  A 1.25 1.25 0.0 0 0 272.94 433.15
  C 283.07 433.52 292.49 435.17 302.82 434.54
  Q 306.92 434.28 309.18 433.41
  C 312.00 432.32 312.45 430.57 313.76 427.60
  Q 314.54 425.80 313.81 424.47
  C 312.63 422.33 311.01 422.51 309.22 423.92
  C 306.85 425.79 304.55 427.88 301.48 428.23
  Q 295.96 428.86 288.01 428.78
  Q 285.38 428.76 283.36 427.60
  Q 282.40 427.05 282.45 425.94
  Q 282.66 421.39 284.00 416.96
  Q 284.84 414.16 287.58 414.00
  Q 293.51 413.66 301.28 413.10
  Q 303.36 412.95 304.66 411.31
  L 304.88 411.02
  A 1.16 1.15 21.3 0 0 304.06 409.15
  Q 295.99 408.57 287.54 407.65
  Q 284.79 407.36 284.51 403.90
  Q 285.06 401.52 284.61 399.07
  C 284.75 396.55 285.87 395.02 288.56 394.82
  Q 294.02 394.42 298.03 394.62
  Q 303.24 394.88 306.53 399.79
  Q 306.69 400.96 307.59 401.51
  A 1.04 1.03 -39.2 0 0 308.52 401.60
  Q 309.62 401.18 309.72 399.75
  Q 311.21 398.05 311.34 395.87
  Q 312.14 390.75 309.83 390.13
  Q 306.66 388.89 305.42 388.86
  Q 304.22 388.82 283.35 388.99
  C 277.17 389.04 271.82 389.86 266.17 391.17
  Q 265.18 391.40 265.18 392.30
  Z
  M 498.11 389.34
  Q 495.27 388.70 492.51 389.92
  L 489.91 390.43
  Q 488.78 390.18 487.92 391.65
  A 1.52 1.51 18.3 0 0 489.07 393.92
  Q 489.68 393.98 490.24 393.47
  L 493.10 394.83
  Q 493.54 395.04 493.66 395.51
  L 495.60 403.12
  Q 495.15 403.08 495.13 403.53
  Q 494.56 413.00 495.42 424.70
  Q 495.50 426.42 494.77 428.56
  Q 494.25 430.05 494.28 430.85
  Q 494.33 432.56 496.11 432.73
  Q 511.66 434.25 523.14 434.42
  C 526.36 434.47 535.88 434.24 536.90 430.09
  C 537.45 427.87 540.70 425.16 537.05 423.29
  Q 535.36 422.42 533.94 423.40
  C 524.97 429.65 517.60 428.85 506.92 427.76
  Q 506.39 427.70 506.37 427.17
  Q 506.16 422.39 506.54 417.53
  C 506.68 415.62 508.20 413.95 509.95 413.89
  Q 518.84 413.58 524.49 413.26
  A 4.67 4.66 -65.4 0 0 527.09 412.29
  L 528.78 410.99
  A 1.02 1.02 0.0 0 0 528.23 409.16
  Q 523.02 408.83 515.14 408.94
  Q 513.55 408.96 509.09 407.29
  Q 508.59 407.10 508.52 406.58
  Q 508.09 403.61 508.19 398.21
  C 508.25 395.55 509.57 394.70 512.12 394.62
  Q 517.55 394.46 522.99 394.63
  C 527.87 394.78 527.33 397.46 529.35 400.68
  A 1.84 1.84 0.0 0 0 532.28 400.93
  C 534.62 398.32 534.30 394.90 534.16 390.68
  Q 534.14 390.17 533.72 389.87
  Q 532.58 389.05 530.25 389.01
  Q 510.29 388.72 498.11 389.34
  Z
  M 553.07 399.44
  Q 553.80 395.59 559.09 393.82
  C 567.37 391.04 571.26 395.35 576.07 401.01
  Q 577.52 402.73 579.02 401.05
  C 583.58 395.95 579.99 389.01 573.59 388.85
  C 568.68 388.73 561.57 388.30 556.31 389.30
  C 552.72 389.97 546.64 391.60 544.66 394.41
  Q 543.10 396.63 542.67 401.54
  C 542.30 405.90 546.67 409.44 550.20 411.04
  Q 556.10 413.70 566.19 417.69
  Q 572.24 420.07 570.47 426.75
  A 0.94 0.93 -3.1 0 1 569.88 427.40
  C 565.01 429.18 559.74 429.04 554.51 428.76
  Q 552.07 428.63 550.54 427.22
  Q 548.88 425.71 547.64 423.45
  C 545.68 419.87 543.66 420.36 541.10 423.00
  C 539.68 424.46 540.06 426.15 540.10 427.93
  C 540.24 434.61 547.85 433.28 551.75 434.18
  C 558.81 435.82 566.44 434.63 572.90 432.11
  C 577.75 430.21 584.33 423.89 581.70 417.99
  C 579.63 413.35 575.54 411.78 570.85 409.75
  C 564.84 407.14 557.29 406.06 553.29 400.42
  Q 552.97 399.98 553.07 399.44
  Z
  M 538.64 429.76
  L 538.39 429.90
  Q 537.84 430.21 538.46 430.07
  L 539.69 429.80
  Q 540.61 429.60 539.68 429.27
  Q 539.33 429.14 538.78 429.66
  Q 538.72 429.72 538.64 429.76
  Z
  M 611.03 492.82
  A 4.46 4.46 0.0 0 0 606.57 488.36
  L 106.27 488.36
  A 4.46 4.46 0.0 0 0 101.81 492.82
  L 101.81 494.50
  A 4.46 4.46 0.0 0 0 106.27 498.96
  L 606.57 498.96
  A 4.46 4.46 0.0 0 0 611.03 494.50
  L 611.03 492.82
  Z
  M 527.08 556.94
  Q 526.29 557.83 526.78 558.94
  Q 527.24 559.98 528.26 559.41
  L 594.46 559.64
  A 1.16 1.16 0.0 0 0 595.62 558.61
  C 595.97 555.71 595.51 553.75 594.19 550.93
  Q 591.56 545.29 589.44 537.65
  C 588.04 532.60 585.74 528.50 581.22 526.84
  Q 574.21 524.27 565.55 524.72
  C 563.85 524.81 562.65 525.91 560.69 525.79
  C 557.66 525.61 553.20 526.37 553.61 530.46
  Q 553.65 530.93 553.93 531.29
  L 556.71 534.91
  A 1.22 1.22 0.0 0 0 557.98 535.35
  C 563.59 533.91 568.66 532.42 573.39 535.27
  Q 574.82 536.14 575.80 538.85
  Q 576.70 541.36 579.41 547.36
  Q 580.28 549.28 579.58 550.94
  Q 579.37 551.43 578.85 551.50
  Q 575.78 551.91 574.38 551.91
  Q 568.27 551.88 543.94 551.83
  C 540.30 551.82 539.62 547.95 539.56 545.03
  Q 539.21 529.14 539.38 509.67
  A 2.85 2.85 0.0 0 0 536.53 506.79
  L 528.78 506.79
  Q 528.27 506.79 528.13 507.28
  C 527.38 509.81 526.54 510.97 526.55 513.89
  Q 526.67 534.58 526.66 555.25
  Q 526.66 555.79 527.08 556.94
  Z
  M 229.66 559.41
  Q 231.24 560.51 232.51 559.17
  Q 232.88 558.77 232.88 558.24
  L 232.88 527.27
  A 2.12 2.12 0.0 0 0 230.76 525.15
  L 221.55 525.15
  A 1.76 1.75 2.1 0 0 219.80 526.77
  Q 219.20 535.65 220.32 544.07
  L 219.35 549.42
  A 1.36 1.32 75.8 0 1 218.91 550.18
  Q 216.67 552.11 213.34 552.04
  Q 208.81 551.96 196.12 551.88
  Q 193.88 551.87 190.51 550.63
  A 0.43 0.42 32.4 0 1 190.35 549.94
  C 197.01 543.07 202.74 536.94 202.44 526.85
  A 0.95 0.94 -82.8 0 0 201.76 525.97
  C 197.08 524.63 192.92 523.17 188.85 522.93
  C 182.23 522.55 175.84 522.33 169.61 524.41
  Q 167.28 525.18 162.16 526.76
  Q 159.49 527.58 158.92 529.06
  C 156.88 534.33 164.22 543.65 168.52 548.20
  Q 169.52 549.25 170.52 550.99
  A 1.12 1.12 0.0 0 1 170.19 552.48
  C 163.37 557.13 157.67 561.43 158.73 570.80
  Q 159.80 580.14 170.36 581.95
  Q 176.40 582.99 176.66 583.05
  Q 178.44 583.47 180.38 583.09
  C 182.44 582.68 184.90 582.77 187.33 582.10
  Q 188.83 581.68 190.51 581.62
  Q 193.02 581.53 193.26 579.02
  L 193.48 576.55
  Q 193.71 574.16 191.31 573.99
  Q 185.23 573.55 179.32 573.75
  C 175.36 573.89 171.61 572.35 171.30 567.98
  C 170.91 562.62 175.71 558.49 180.24 556.88
  Q 180.70 556.72 181.17 556.85
  L 189.68 559.30
  A 5.43 5.23 -35.7 0 0 191.20 559.52
  L 229.66 559.41
  Z
  M 350.09 525.76
  Q 347.60 525.06 345.22 525.23
  Q 344.64 525.28 344.44 525.61
  Q 344.23 525.99 344.32 526.59
  Q 343.52 527.17 343.52 528.00
  Q 343.49 539.80 343.06 549.97
  A 2.14 2.14 0.0 0 1 341.09 552.01
  Q 337.04 552.34 331.42 549.62
  Q 330.92 549.38 330.88 548.81
  C 330.75 546.69 329.36 545.35 329.26 542.94
  Q 328.98 536.43 329.46 531.17
  A 0.41 0.41 0.0 0 0 329.05 530.72
  L 319.58 530.72
  A 2.97 2.97 0.0 0 0 316.61 533.67
  C 316.58 537.63 317.49 550.32 312.72 550.71
  Q 308.67 551.04 304.75 550.64
  A 2.64 2.63 2.9 0 1 302.38 548.02
  L 302.38 532.48
  A 1.71 1.71 0.0 0 0 300.67 530.77
  L 290.90 530.77
  A 1.36 1.35 -1.6 0 0 289.54 532.20
  Q 289.90 538.24 289.78 544.54
  Q 289.72 547.27 288.13 549.97
  Q 287.87 550.40 287.40 550.58
  C 283.90 551.89 279.57 552.67 276.00 551.23
  Q 274.35 550.56 271.79 550.68
  A 1.20 1.19 -22.7 0 1 270.88 550.31
  Q 269.44 548.84 269.42 545.99
  Q 269.35 533.78 269.43 528.03
  Q 269.46 525.65 267.13 525.17
  Q 264.16 524.56 259.96 524.68
  Q 256.30 524.79 256.42 528.77
  Q 256.92 544.89 256.46 558.75
  Q 256.44 559.37 255.74 563.05
  Q 255.29 565.39 253.74 566.37
  Q 250.50 568.43 247.50 567.73
  Q 242.91 566.64 240.15 566.85
  Q 239.64 566.89 239.50 567.39
  L 237.97 572.67
  A 2.21 2.21 0.0 0 0 239.14 575.28
  C 242.23 576.75 244.52 577.31 248.13 577.11
  Q 251.37 576.93 253.57 577.05
  Q 257.05 577.23 258.91 576.56
  C 264.18 574.68 267.86 570.30 269.67 565.21
  C 270.81 562.02 272.77 561.16 275.81 561.04
  Q 279.48 560.91 308.82 560.89
  Q 315.62 560.89 320.69 558.90
  Q 324.53 557.39 325.94 557.07
  Q 326.43 556.96 326.90 557.13
  C 328.80 557.83 331.54 559.39 334.24 559.81
  Q 344.42 561.38 354.35 560.85
  A 2.05 2.04 -1.3 0 0 356.29 558.82
  Q 356.44 538.65 356.11 528.75
  Q 356.06 527.02 356.05 527.01
  C 355.57 523.65 352.02 524.60 350.09 525.76
  Z
  M 458.33 567.51
  Q 459.39 564.70 458.30 561.96
  Q 457.26 558.82 454.99 557.25
  Q 444.54 550.06 441.11 547.70
  Q 437.50 545.21 440.10 541.90
  Q 443.94 537.01 451.04 535.22
  Q 452.75 534.79 456.04 535.51
  C 457.81 535.90 458.79 534.99 459.45 533.45
  C 460.25 531.59 461.71 528.80 460.93 527.33
  Q 460.52 526.56 459.24 526.15
  Q 453.43 524.27 451.49 524.64
  C 448.74 525.17 444.45 525.66 441.39 527.05
  C 436.07 529.48 429.61 534.90 426.53 540.04
  Q 424.86 542.83 425.48 546.69
  Q 425.95 549.66 428.95 551.94
  Q 433.16 555.15 437.10 557.05
  Q 443.09 559.92 446.27 563.93
  A 1.02 1.01 -44.3 0 1 446.25 565.20
  C 444.00 567.88 441.83 567.74 437.72 568.18
  C 433.89 568.59 429.68 567.99 426.44 567.92
  C 420.29 567.80 413.16 568.28 410.73 563.06
  C 408.45 558.14 409.34 555.41 410.46 550.99
  C 411.60 546.51 403.89 546.53 401.53 546.96
  A 1.30 1.28 11.4 0 0 400.70 547.50
  C 397.48 552.12 396.98 558.38 397.34 563.52
  C 397.78 569.73 402.21 573.85 407.71 576.34
  Q 409.93 577.35 413.77 577.14
  C 419.73 576.81 427.18 576.69 434.67 576.81
  C 441.22 576.91 456.36 575.55 458.33 567.51
  Z
  M 491.76 525.86
  C 485.16 527.50 477.92 527.81 474.34 534.61
  Q 468.48 545.73 475.95 555.39
  Q 477.32 557.16 481.09 558.99
  C 483.96 560.39 490.10 559.27 493.33 559.74
  Q 495.03 559.99 498.24 561.79
  Q 498.66 562.03 498.62 562.51
  C 498.19 567.39 494.78 567.62 490.45 568.50
  Q 487.55 569.09 485.55 568.43
  Q 485.24 568.32 481.02 567.38
  C 476.35 566.34 473.57 567.20 472.95 572.59
  C 472.56 576.08 478.77 576.59 481.38 576.79
  Q 484.83 577.04 494.96 576.91
  C 497.50 576.88 500.92 576.13 502.89 574.90
  C 504.50 573.88 509.85 569.33 510.29 566.45
  C 510.58 564.56 511.32 563.36 511.29 561.11
  Q 511.09 544.59 511.24 528.12
  Q 511.93 527.58 511.58 526.47
  Q 511.08 524.87 509.25 524.86
  Q 500.40 524.78 491.76 525.86
  Z
  M 219.65 573.46
  Q 219.57 573.62 219.71 573.72
  Q 221.94 575.44 223.25 576.48
  C 224.67 577.61 225.40 577.52 227.33 577.70
  C 231.72 578.10 231.21 572.70 231.18 570.44
  A 2.56 2.56 0.0 0 0 228.43 567.93
  C 226.02 568.12 223.28 567.13 221.80 569.59
  Q 221.31 570.41 219.65 573.46
  Z
  M 573.97 575.27
  A 5.69 5.09 -2.7 0 0 571.60 568.04
  A 5.66 5.08 -1.9 0 0 566.96 567.95
  A 5.70 5.09 -3.2 0 0 563.65 574.12
  A 5.70 5.10 -2.7 0 0 573.97 575.27
  Z
  M 217.7607 573.2003
  A 5.74 4.81 4.7 0 0 212.4341 567.9362
  A 5.74 4.81 4.7 0 0 206.3193 572.2597
  A 5.74 4.81 4.7 0 0 211.6459 577.5238
  A 5.74 4.81 4.7 0 0 217.7607 573.2003
  Z
  M 440.47 589.13
  A 5.40 5.40 0.0 0 0 435.07 583.73
  A 5.40 5.40 0.0 0 0 429.67 589.13
  A 5.40 5.40 0.0 0 0 435.07 594.53
  A 5.40 5.40 0.0 0 0 440.47 589.13
  Z
  M 415.59 586.59
  L 415.63 591.41
  A 2.15 2.15 0.0 0 0 417.79 593.54
  L 421.55 593.52
  A 4.75 4.56 -0.4 0 0 426.27 588.92
  L 426.27 588.92
  A 4.75 4.56 -0.4 0 0 421.49 584.40
  L 417.73 584.42
  A 2.15 2.15 0.0 0 0 415.59 586.59
  Z"
/>
<g stroke-width="2.00" fill="none" stroke-linecap="butt">
<path stroke="#b66464" d="
  M 245.52 315.05
  Q 246.50 306.51 245.98 297.61"
/>
<path stroke="#b66464" d="
  M 246.39 293.69
  Q 247.29 294.08 247.29 292.37
  Q 247.19 265.21 247.06 238.03
  Q 247.05 237.35 246.68 236.89"
/>
<path stroke="#b66464" d="
  M 610.25 137.67
  Q 610.69 133.44 609.59 129.18
  Q 609.46 128.68 608.97 128.51
  Q 608.12 128.21 607.50 128.77"
/>
<path stroke="#b66464" d="
  M 642.32 193.57
  Q 643.74 188.26 642.19 183.22"
/>
<path stroke="#b66464" d="
  M 576.25 250.46
  Q 577.08 248.25 576.25 245.95"
/>
<path stroke="#b66464" d="
  M 418.43 411.16
  Q 425.43 409.49 426.99 402.70
  Q 427.77 399.31 426.37 396.45
  Q 424.80 393.24 421.59 391.76"
/>
<path stroke="#b66464" d="
  M 320.50 391.70
  Q 319.67 391.37 319.16 392.46
  A 0.57 0.57 0.0 0 0 319.42 393.21
  Q 319.80 393.41 320.21 393.06"
/>
<path stroke="#b66464" d="
  M 429.96 391.82
  Q 430.35 391.20 429.47 391.53
  A 0.63 0.62 65.8 0 0 429.14 392.40
  Q 430.46 395.00 433.15 393.69"
/>
<path stroke="#b66464" d="
  M 487.95 431.70
  Q 489.32 431.77 489.70 431.02
  A 0.72 0.72 0.0 0 0 489.18 429.99
  Q 487.69 429.76 486.80 430.11"
/>
<path stroke="#b66464" d="
  M 474.42 406.87
  Q 479.32 404.43 478.61 399.07"
/>
<path stroke="#b66464" d="
  M 265.18 392.30
  Q 264.22 391.45 263.64 392.02
  A 0.87 0.86 -51.1 0 0 263.78 393.37
  Q 265.08 394.19 265.71 393.26"
/>
<path stroke="#b66464" d="
  M 284.51 403.90
  Q 285.06 401.52 284.61 399.07"
/>
<path stroke="#b66464" d="
  M 306.53 399.79
  Q 306.69 400.96 307.59 401.51
  A 1.04 1.03 -39.2 0 0 308.52 401.60
  Q 309.62 401.18 309.72 399.75"
/>
<path stroke="#b66464" d="
  M 311.34 395.87
  Q 312.14 390.75 309.83 390.13"
/>
<path stroke="#b66464" d="
  M 498.11 389.34
  Q 495.27 388.70 492.51 389.92"
/>
<path stroke="#b66464" d="
  M 489.91 390.43
  Q 488.78 390.18 487.92 391.65
  A 1.52 1.51 18.3 0 0 489.07 393.92
  Q 489.68 393.98 490.24 393.47"
/>
<path stroke="#b66464" d="
  M 495.60 403.12
  Q 495.15 403.08 495.13 403.53
  Q 494.56 413.00 495.42 424.70"
/>
<path stroke="#b66464" d="
  M 527.08 556.94
  Q 526.29 557.83 526.78 558.94
  Q 527.24 559.98 528.26 559.41"
/>
<path stroke="#b66464" d="
  M 229.66 559.41
  Q 231.24 560.51 232.51 559.17
  Q 232.88 558.77 232.88 558.24
  L 232.88 527.27
  A 2.12 2.12 0.0 0 0 230.76 525.15
  L 221.55 525.15
  A 1.76 1.75 2.1 0 0 219.80 526.77
  Q 219.20 535.65 220.32 544.07"
/>
<path stroke="#b66464" d="
  M 350.09 525.76
  Q 347.60 525.06 345.22 525.23
  Q 344.64 525.28 344.44 525.61
  Q 344.23 525.99 344.32 526.59"
/>
<path stroke="#b66464" d="
  M 458.33 567.51
  Q 459.39 564.70 458.30 561.96"
/>
<path stroke="#b66464" d="
  M 511.24 528.12
  Q 511.93 527.58 511.58 526.47
  Q 511.08 524.87 509.25 524.86
  Q 500.40 524.78 491.76 525.86"
/>
<path stroke="#b66464" d="
  M 573.97 575.27
  A 5.69 5.09 -2.7 0 0 571.60 568.04"
/>
</g>
<path fill="#a2a5a0" d="
  M 610.25 137.67
  Q 610.46 134.39 610.08 133.00
  Q 609.08 129.26 607.50 128.77
  Q 608.12 128.21 608.97 128.51
  Q 609.46 128.68 609.59 129.18
  Q 610.69 133.44 610.25 137.67
  Z"
/>
<path fill="#a2a5a0" d="
  M 642.32 193.57
  L 642.19 183.22
  Q 643.74 188.26 642.32 193.57
  Z"
/>
<path fill="#a2a5a0" d="
  M 246.68 236.89
  Q 247.05 237.35 247.06 238.03
  Q 247.19 265.21 247.29 292.37
  Q 247.29 294.08 246.39 293.69
  Q 246.15 255.37 246.20 237.77
  Q 246.20 237.06 246.68 236.89
  Z"
/>
<path fill="#a2a5a0" d="
  M 576.25 250.46
  Q 575.87 248.26 576.25 245.95
  Q 577.08 248.25 576.25 250.46
  Z"
/>
<path fill="#ca2227" d="
  M 337.81 261.55
  Q 339.44 261.54 341.25 262.33
  C 353.56 267.68 356.18 277.42 355.37 290.49
  Q 354.51 304.25 349.75 316.04
  C 346.41 324.30 343.00 330.72 335.89 335.60
  C 333.54 337.20 328.61 340.67 324.74 341.94
  C 320.96 343.18 316.08 344.92 312.20 344.71
  C 308.87 344.52 305.70 345.03 302.77 343.86
  C 298.82 342.29 294.28 339.92 291.88 336.15
  C 290.04 333.25 289.11 330.45 287.89 326.94
  Q 287.16 324.83 287.22 322.44
  C 287.31 318.69 287.14 313.26 287.76 308.92
  C 290.47 290.07 299.06 272.06 316.86 263.09
  C 321.96 260.52 327.52 260.88 334.12 260.83
  C 335.66 260.81 336.60 261.55 337.81 261.55
  Z"
/>
<path fill="#a2a5a0" d="
  M 245.52 315.05
  Q 245.24 310.05 245.25 302.00
  Q 245.26 299.55 245.98 297.61
  Q 246.50 306.51 245.52 315.05
  Z"
/>
<path fill="#a2a5a0" d="
  M 498.11 389.34
  Q 495.42 390.35 492.51 389.92
  Q 495.27 388.70 498.11 389.34
  Z"
/>
<path fill="#a2a5a0" d="
  M 311.34 395.87
  Q 311.24 392.79 309.83 390.13
  Q 312.14 390.75 311.34 395.87
  Z"
/>
<path fill="#a2a5a0" d="
  M 489.91 390.43
  Q 488.98 391.53 489.02 392.51
  Q 489.04 393.17 490.24 393.47
  Q 489.68 393.98 489.07 393.92
  A 1.52 1.51 18.3 0 1 487.92 391.65
  Q 488.78 390.18 489.91 390.43
  Z"
/>
<path fill="#a2a5a0" d="
  M 320.50 391.70
  L 320.21 393.06
  Q 319.80 393.41 319.42 393.21
  A 0.57 0.57 0.0 0 1 319.16 392.46
  Q 319.67 391.37 320.50 391.70
  Z"
/>
<path fill="#a2a5a0" d="
  M 429.96 391.82
  Q 430.88 393.05 433.15 393.69
  Q 430.46 395.00 429.14 392.40
  A 0.63 0.62 65.8 0 1 429.47 391.53
  Q 430.35 391.20 429.96 391.82
  Z"
/>
<path fill="#a2a5a0" d="
  M 418.43 411.16
  C 419.90 409.99 421.84 409.17 423.00 408.05
  Q 427.02 404.20 426.31 398.56
  C 425.97 395.87 423.44 393.74 421.59 391.76
  Q 424.80 393.24 426.37 396.45
  Q 427.77 399.31 426.99 402.70
  Q 425.43 409.49 418.43 411.16
  Z"
/>
<path fill="#a2a5a0" d="
  M 265.18 392.30
  L 265.71 393.26
  Q 265.08 394.19 263.78 393.37
  A 0.87 0.86 -51.1 0 1 263.64 392.02
  Q 264.22 391.45 265.18 392.30
  Z"
/>
<path fill="#ca2227" d="
  M 396.51 408.50
  C 395.65 403.60 396.79 399.61 397.85 395.00
  A 1.76 1.74 -1.8 0 1 399.06 393.72
  Q 405.17 391.94 410.61 394.43
  C 415.05 396.46 416.99 400.05 414.56 404.81
  C 413.61 406.68 412.77 407.85 410.76 408.64
  Q 404.92 410.95 397.72 409.70
  A 1.49 1.48 0.1 0 1 396.51 408.50
  Z"
/>
<path fill="#ca2227" d="
  M 449.30 397.05
  A 3.78 3.78 0.0 0 1 453.03 393.22
  L 454.44 393.21
  A 12.51 7.85 -0.7 0 1 467.05 400.90
  L 467.05 400.90
  A 12.51 7.85 -0.7 0 1 454.64 408.90
  L 453.23 408.92
  A 3.78 3.78 0.0 0 1 449.40 405.19
  L 449.30 397.05
  Z"
/>
<path fill="#a2a5a0" d="
  M 284.51 403.90
  Q 283.81 401.60 284.61 399.07
  Q 285.06 401.52 284.51 403.90
  Z"
/>
<path fill="#a2a5a0" d="
  M 474.42 406.87
  Q 477.69 403.53 478.61 399.07
  Q 479.32 404.43 474.42 406.87
  Z"
/>
<path fill="#a2a5a0" d="
  M 309.72 399.75
  Q 309.62 401.18 308.52 401.60
  A 1.04 1.03 -39.2 0 1 307.59 401.51
  Q 306.69 400.96 306.53 399.79
  Q 308.35 401.23 309.72 399.75
  Z"
/>
<path fill="#a2a5a0" d="
  M 495.60 403.12
  Q 496.40 413.73 495.42 424.70
  Q 494.56 413.00 495.13 403.53
  Q 495.15 403.08 495.60 403.12
  Z"
/>
<path fill="#a2a5a0" d="
  M 487.95 431.70
  Q 488.08 430.17 486.80 430.11
  Q 487.69 429.76 489.18 429.99
  A 0.72 0.72 0.0 0 1 489.70 431.02
  Q 489.32 431.77 487.95 431.70
  Z"
/>
<path fill="#a2a5a0" d="
  M 511.24 528.12
  Q 510.56 525.93 508.00 526.09
  Q 504.62 526.31 491.76 525.86
  Q 500.40 524.78 509.25 524.86
  Q 511.08 524.87 511.58 526.47
  Q 511.93 527.58 511.24 528.12
  Z"
/>
<path fill="#a2a5a0" d="
  M 229.66 559.41
  Q 232.28 559.86 232.26 557.77
  Q 232.06 542.19 232.25 526.91
  A 0.96 0.96 0.0 0 0 231.29 525.94
  L 221.82 525.94
  A 1.17 1.17 0.0 0 0 220.65 527.09
  L 220.32 544.07
  Q 219.20 535.65 219.80 526.77
  A 1.76 1.75 2.1 0 1 221.55 525.15
  L 230.76 525.15
  A 2.12 2.12 0.0 0 1 232.88 527.27
  L 232.88 558.24
  Q 232.88 558.77 232.51 559.17
  Q 231.24 560.51 229.66 559.41
  Z"
/>
<path fill="#a2a5a0" d="
  M 350.09 525.76
  L 344.32 526.59
  Q 344.23 525.99 344.44 525.61
  Q 344.64 525.28 345.22 525.23
  Q 347.60 525.06 350.09 525.76
  Z"
/>
<path fill="#ca2227" d="
  M 171.86 533.11
  Q 181.02 528.86 190.27 532.51
  A 1.37 1.37 0.0 0 1 191.06 534.23
  Q 188.46 541.82 182.01 545.23
  C 176.68 548.05 172.92 537.78 171.42 534.25
  A 0.88 0.88 0.0 0 1 171.86 533.11
  Z"
/>
<path fill="#ca2227" d="
  M 498.63 549.79
  A 2.33 2.33 0.0 0 1 496.31 552.12
  L 494.80 552.13
  A 9.42 7.77 -0.2 0 1 485.35 544.39
  L 485.35 541.65
  A 9.42 7.77 -0.2 0 1 494.74 533.85
  L 496.25 533.85
  A 2.33 2.33 0.0 0 1 498.59 536.17
  L 498.63 549.79
  Z"
/>
<path fill="#a2a5a0" d="
  M 528.26 559.41
  Q 527.24 559.98 526.78 558.94
  Q 526.29 557.83 527.08 556.94
  L 528.26 559.41
  Z"
/>
<path fill="#a2a5a0" d="
  M 458.33 567.51
  Q 457.82 564.69 458.30 561.96
  Q 459.39 564.70 458.33 567.51
  Z"
/>
<path fill="#a2a5a0" d="
  M 573.97 575.27
  Q 575.09 570.23 571.60 568.04
  A 5.69 5.09 -2.7 0 1 573.97 575.27
  Z"
/>
</svg>
